<svg xmlns="http://www.w3.org/2000/svg" width="16.709" height="8.14" viewBox="0 0 16.709 8.14">
    <g id="noun_right_688147" transform="rotate(180 8.354 4.07)">
        <path id="Path_49" fill="#34485e" d="M27.709 987.43a.5.5 0 0 0-.121-.295l-3.427-3.642a.429.429 0 0 0-.606-.017.441.441 0 0 0-.017.606L26.29 987H11.429a.428.428 0 0 0 0 .857H26.29l-2.751 2.919a.449.449 0 0 0 .017.606.429.429 0 0 0 .606-.017l3.427-3.642a.381.381 0 0 0 .12-.293z" data-name="Path 49" transform="translate(-11 -983.36)"/>
    </g>
</svg>
