<svg id="noun_clock_2120385" xmlns="http://www.w3.org/2000/svg" width="28.349" height="28.349" viewBox="0 0 28.349 28.349">
  <path id="Path_51" data-name="Path 51" d="M16.175,2A14.175,14.175,0,1,0,30.349,16.175,14.146,14.146,0,0,0,16.175,2Zm0,26.169A11.994,11.994,0,1,1,28.169,16.175,11.959,11.959,0,0,1,16.175,28.169Z" transform="translate(-2 -2)" fill="#34485e"/>
  <path id="Path_52" data-name="Path 52" d="M16.181,15.287V8.09A1.09,1.09,0,1,0,14,8.09v7.633a.656.656,0,0,0,.109.436c.109.109.109.218.218.327l5.343,5.343a1.054,1.054,0,0,0,1.527,0,1.054,1.054,0,0,0,0-1.527Z" transform="translate(-0.916 -1.548)" fill="#34485e"/>
</svg>
