<svg xmlns="http://www.w3.org/2000/svg" width="101.667" height="115.301" viewBox="0 0 101.667 115.301">
	<g id="css" transform="translate(0 0)">
		<g id="g3013">
			<path id="polygon2989" d="M176.3,100.62l-9.262,103.759L125.4,215.921,83.885,204.4,74.633,100.62Z" transform="translate(-74.633 -100.62)" fill="#264de4" />
			<path id="polygon2991" d="M289.642,219.561l7.915-88.667H256v97.994Z" transform="translate(-205.167 -122.409)" fill="#2965f1" />
			<path id="polygon2993" d="M150.31,268.217l1.141,12.727h28.482V268.217Z" transform="translate(-129.099 -221.243)" fill="#ebebeb" />
			<path id="polygon2995" d="M174.047,176.3H142.132l1.157,12.728h30.758Z" transform="translate(-123.213 -155.092)" fill="#ebebeb" />
			<path id="polygon2997" d="M184.322,363.539V350.3l-.056.015-14.175-3.827-.906-10.151H156.409l1.783,19.984,26.072,7.238Z" transform="translate(-133.489 -270.268)" fill="#ebebeb" />
			<path id="polygon3005" d="M271.516,214.793,270.038,231.3l-14.2,3.831v13.242l26.092-7.232.191-2.15,2.991-33.508.311-3.418,2.3-25.761H255.843v12.728h17.935l-1.158,13.033H255.843v12.727Z" transform="translate(-205.054 -155.092)" fill="#fff" />
		</g>
	</g>
</svg>
