<svg id="php" xmlns="http://www.w3.org/2000/svg" xmlns:xlink="http://www.w3.org/1999/xlink" width="188.577" height="106.074" viewBox="0 0 188.577 106.074">
  <defs>
    <clipPath id="clip-path">
      <path id="path3446" d="M14.4-336.683c0,26.3,40.527,47.615,90.517,47.615h0c49.99,0,90.517-21.318,90.517-47.615h0c0-26.3-40.527-47.615-90.517-47.615h0c-49.99,0-90.517,21.319-90.517,47.615" transform="translate(-14.4 384.299)"/>
    </clipPath>
    <radialGradient id="radial-gradient" cx="0.628" cy="0.8" r="1.248" gradientTransform="translate(-0.009 0.511) scale(0.526 1)" gradientUnits="objectBoundingBox">
      <stop offset="0" stop-color="#aeb2d5"/>
      <stop offset="0.3" stop-color="#aeb2d5"/>
      <stop offset="0.75" stop-color="#484c89"/>
      <stop offset="1" stop-color="#484c89"/>
    </radialGradient>
    <clipPath id="clip-path-2">
      <path id="path3470" d="M0-405H188.577v106.074H0Z" transform="translate(0 405)"/>
    </clipPath>
  </defs>
  <g id="g3440" transform="translate(3.772 5.422)">
    <g id="g3442" transform="translate(0 0)" clip-path="url(#clip-path)">
      <g id="g3448">
        <g id="g3450">
          <path id="path3462" d="M14.4-336.683c0,26.3,40.527,47.615,90.517,47.615h0c49.99,0,90.517-21.318,90.517-47.615h0c0-26.3-40.527-47.615-90.517-47.615h0c-49.99,0-90.517,21.319-90.517,47.615" transform="translate(-14.4 384.299)" fill="url(#radial-gradient)"/>
        </g>
      </g>
    </g>
  </g>
  <g id="g3464">
    <g id="g3466" clip-path="url(#clip-path-2)">
      <g id="g3472" transform="translate(7.307 8.957)">
        <path id="path3474" d="M-245.119-248.442c48.038,0,86.981-19.735,86.981-44.08s-38.943-44.08-86.981-44.08-86.981,19.736-86.981,44.08,38.943,44.08,86.981,44.08" transform="translate(332.1 336.602)" fill="#777bb3"/>
      </g>
    </g>
  </g>
  <g id="g3476">
    <g id="g3478" clip-path="url(#clip-path-2)">
      <g id="g3484" transform="translate(31.322 31.002)">
        <path id="path3486" d="M-60.95-77.5c3.95,0,6.9-.728,8.765-2.164,1.846-1.421,3.121-3.884,3.789-7.318.623-3.21.386-5.452-.705-6.662-1.115-1.236-3.527-1.862-7.168-1.862h-6.312l-3.5,18.006ZM-81.6-55.319a.981.981,0,0,1-.758-.358.982.982,0,0,1-.206-.812l9.274-47.717a.982.982,0,0,1,.964-.795h19.988c6.282,0,10.958,1.706,13.9,5.07,2.955,3.382,3.867,8.11,2.712,14.052a22.429,22.429,0,0,1-2.4,6.682,22.372,22.372,0,0,1-4.423,5.543,19.405,19.405,0,0,1-7.28,4.362,32.976,32.976,0,0,1-10,1.286h-8.094l-2.311,11.891a.982.982,0,0,1-.964.795Z" transform="translate(82.578 105)"/>
      </g>
      <g id="g3488" transform="translate(30.34 30.019)">
        <path id="path3490" d="M-61.4-32.291h5.5c4.394,0,5.92.964,6.439,1.539.86.954,1.023,2.965.47,5.817-.621,3.192-1.773,5.455-3.424,6.726-1.69,1.3-4.437,1.96-8.165,1.96h-3.94Zm9.439-11.459H-71.951a1.964,1.964,0,0,0-1.928,1.589L-83.153,5.557a1.965,1.965,0,0,0,.412,1.624,1.964,1.964,0,0,0,1.516.715H-70.83A1.964,1.964,0,0,0-68.9,6.306l2.157-11.1h7.284A33.935,33.935,0,0,0-49.155-6.125,20.386,20.386,0,0,0-41.509-10.7a23.364,23.364,0,0,0,4.61-5.781,23.409,23.409,0,0,0,2.51-6.974c1.216-6.254.228-11.263-2.936-14.885-3.134-3.588-8.058-5.407-14.636-5.407M-66.9-14.285h6.323q6.286,0,9.364-2.368t4.154-7.909q1.032-5.319-.94-7.507t-7.9-2.187H-63.02L-66.9-14.285m14.94-27.5q9.02,0,13.157,4.734t2.487,13.218a21.365,21.365,0,0,1-2.3,6.39,21.31,21.31,0,0,1-4.231,5.3,18.36,18.36,0,0,1-6.919,4.151,31.864,31.864,0,0,1-9.7,1.238h-8.9L-70.83,5.931H-81.225l9.274-47.717h19.989" transform="translate(83.189 43.75)" fill="#fff"/>
      </g>
      <g id="g3492" transform="translate(75.572 18.315)">
        <path id="path3494" d="M-74.5-140.006a.981.981,0,0,1-.758-.358.98.98,0,0,1-.207-.812l4.1-21.113c.39-2.008.294-3.449-.271-4.058-.346-.372-1.384-1-4.455-1h-7.432L-88.679-140.8a.982.982,0,0,1-.964.795H-99.955a.982.982,0,0,1-.758-.358.981.981,0,0,1-.206-.812l9.274-47.717a.982.982,0,0,1,.964-.795h10.313a.982.982,0,0,1,.758.357.982.982,0,0,1,.206.812L-81.642-177h8c6.091,0,10.221,1.074,12.627,3.283,2.452,2.254,3.217,5.857,2.274,10.712L-63.06-140.8a.982.982,0,0,1-.964.795Z" transform="translate(100.938 189.688)"/>
      </g>
      <g id="g3496" transform="translate(74.59 17.333)">
        <path id="path3498" d="M-60.734,0H-71.047a1.964,1.964,0,0,0-1.928,1.589l-9.274,47.717a1.964,1.964,0,0,0,.413,1.624,1.964,1.964,0,0,0,1.516.715h10.313a1.965,1.965,0,0,0,1.928-1.589l5-25.748h6.623c3.065,0,3.709.655,3.735.683.186.2.431,1.127.027,3.2l-4.1,21.113a1.964,1.964,0,0,0,.413,1.624,1.964,1.964,0,0,0,1.516.715H-44.39a1.965,1.965,0,0,0,1.928-1.589l4.315-22.205c1.013-5.212.146-9.122-2.574-11.622-2.6-2.384-6.943-3.542-13.292-3.542h-6.8l2.011-10.347A1.965,1.965,0,0,0-59.218.715,1.964,1.964,0,0,0-60.734,0m0,1.964L-63.2,14.651h9.187q8.671,0,11.963,3.024t1.975,9.8l-4.315,22.2H-54.866l4.1-21.113q.7-3.6-.515-4.913t-5.174-1.311H-64.7l-5.312,27.337H-80.321l9.274-47.717h10.313" transform="translate(82.285)" fill="#fff"/>
      </g>
      <g id="g3500" transform="translate(112.455 31.002)">
        <path id="path3502" d="M-60.95-77.5c3.95,0,6.9-.728,8.765-2.164,1.846-1.421,3.121-3.883,3.789-7.318.623-3.21.386-5.452-.706-6.662-1.115-1.236-3.527-1.862-7.168-1.862h-6.312l-3.5,18.006ZM-81.6-55.319a.981.981,0,0,1-.758-.358.982.982,0,0,1-.207-.812l9.274-47.717a.983.983,0,0,1,.964-.795h19.988c6.282,0,10.958,1.706,13.9,5.07,2.955,3.382,3.867,8.11,2.712,14.052a22.447,22.447,0,0,1-2.4,6.682,22.372,22.372,0,0,1-4.423,5.543,19.405,19.405,0,0,1-7.28,4.362,32.976,32.976,0,0,1-10,1.286h-8.094l-2.31,11.891a.983.983,0,0,1-.964.795Z" transform="translate(82.578 105)"/>
      </g>
      <g id="g3504" transform="translate(111.473 30.019)">
        <path id="path3506" d="M-61.4-32.291h5.5c4.394,0,5.92.964,6.439,1.539.861.954,1.023,2.965.47,5.816-.621,3.192-1.773,5.456-3.424,6.727-1.69,1.3-4.437,1.96-8.165,1.96h-3.939Zm9.439-11.459H-71.95a1.964,1.964,0,0,0-1.928,1.589L-83.152,5.557a1.965,1.965,0,0,0,.412,1.624,1.964,1.964,0,0,0,1.516.715h10.395A1.965,1.965,0,0,0-68.9,6.306l2.157-11.1h7.284A33.935,33.935,0,0,0-49.154-6.125,20.386,20.386,0,0,0-41.508-10.7a23.353,23.353,0,0,0,4.609-5.78,23.409,23.409,0,0,0,2.51-6.974c1.216-6.255.228-11.263-2.936-14.885-3.134-3.587-8.058-5.406-14.636-5.406M-66.9-14.285h6.323q6.286,0,9.364-2.368t4.154-7.909q1.032-5.319-.94-7.507t-7.9-2.187h-7.122L-66.9-14.285m14.939-27.5q9.02,0,13.157,4.734t2.487,13.218a21.365,21.365,0,0,1-2.3,6.39,21.31,21.31,0,0,1-4.231,5.3,18.36,18.36,0,0,1-6.919,4.151,31.864,31.864,0,0,1-9.7,1.238h-8.9L-70.829,5.931H-81.224l9.274-47.717h19.988" transform="translate(83.188 43.75)" fill="#fff"/>
      </g>
    </g>
  </g>
</svg>
