<svg id="noun_right_688147" xmlns="http://www.w3.org/2000/svg" width="52.813" height="25.729" viewBox="0 0 52.813 25.729">
  <path id="Path_49" data-name="Path 49" d="M63.813,996.225a1.574,1.574,0,0,0-.382-.931L52.6,983.782a1.356,1.356,0,0,0-1.915-.053,1.4,1.4,0,0,0-.053,1.915l8.7,9.225H12.354a1.354,1.354,0,0,0,0,2.708H59.326l-8.7,9.225a1.418,1.418,0,0,0,.053,1.915,1.356,1.356,0,0,0,1.915-.053l10.833-11.511A1.2,1.2,0,0,0,63.813,996.225Z" transform="translate(-11 -983.36)" fill="#34485e"/>
</svg>
