<svg xmlns="http://www.w3.org/2000/svg" width="87.331" height="87.331" viewBox="0 0 87.331 87.331">
  <g id="wordpress" transform="translate(-3.51 -1.668)">
    <path id="Path_55" data-name="Path 55" d="M47.177,7.788a37.405,37.405,0,0,1,25.4,9.9,6.169,6.169,0,0,0-6.682,6.32c-.276,9.016,10.782,10.937,4.824,29.073l-4.928,15L52.366,28.542c-.208-.612.034-.96.786-.96h3.795a.368.368,0,0,0,.358-.375V24.959a.363.363,0,0,0-.358-.375q-10.779.471-21.431,0a.363.363,0,0,0-.358.375v2.248a.368.368,0,0,0,.358.375h3.816c.849,0,1.086.283,1.286.83L46.132,43.5l-8.3,25.051L24.2,28.379c-.169-.5.035-.8.521-.8h4.348a.368.368,0,0,0,.358-.375V24.96a.362.362,0,0,0-.358-.375c-4.561.242-9.14.291-13.406.335A37.516,37.516,0,0,1,47.175,7.787h0ZM80.2,27.455a37.566,37.566,0,0,1-15,50.822l11.71-33.166c1.814-5.133,3.5-12.07,3.292-17.656h0ZM59.747,80.719a37.687,37.687,0,0,1-23.49.546L47.824,48.117l11.923,32.6h0ZM31.11,79.275A37.571,37.571,0,0,1,13,29.764L31.111,79.276h0ZM47.176,4.264A41.069,41.069,0,1,1,6.107,45.333,41.074,41.074,0,0,1,47.176,4.264Zm0-2.6A43.666,43.666,0,1,1,3.51,45.334,43.672,43.672,0,0,1,47.176,1.668Z" transform="translate(0 0)" fill="#464342" fill-rule="evenodd"/>
  </g>
</svg>
