<svg height="512" viewBox="0 0 64 64" width="512" xmlns="http://www.w3.org/2000/svg"><g id="website_security" data-name="website security"><path d="m48.293 14.293-5 5 1.414 1.414 4.707-4.707h8.586v-2h-9a1 1 0 0 0 -.707.293z"/><path d="m15 14h-9v2h8.586l4.707 4.707 1.414-1.414-5-5a1 1 0 0 0 -.707-.293z"/><path d="m6 18h8v2h-8z"/><path d="m6 22h8v2h-8z"/><path d="m6 26h8v2h-8z"/><path d="m50 18h8v2h-8z"/><path d="m50 22h8v2h-8z"/><path d="m50 26h8v2h-8z"/><path d="m31 14h2v2h-2z"/><path d="m35 14h2v2h-2z"/><path d="m27 14h2v2h-2z"/><path d="m59 2h-54a3.009 3.009 0 0 0 -3 3v37a3.009 3.009 0 0 0 3 3h9v.31a3 3 0 0 0 2.5 2.96l1.74.29a.93.93 0 0 1 .74.58l.17.43a.958.958 0 0 1 -.1.95l-1.02 1.42a2.992 2.992 0 0 0 .32 3.87l1.84 1.83a2.981 2.981 0 0 0 3.87.33l1.42-1.02a1 1 0 0 1 .99-.09l.39.16a.93.93 0 0 1 .58.75l.29 1.72a3 3 0 0 0 2.96 2.51h2.62a3 3 0 0 0 2.96-2.5l.29-1.74a.93.93 0 0 1 .58-.74l.43-.17a.958.958 0 0 1 .95.1l1.42 1.02a2.98 2.98 0 0 0 3.87-.32l1.83-1.84a2.981 2.981 0 0 0 .33-3.87l-1.02-1.42a1 1 0 0 1 -.09-.99l.16-.39a.93.93 0 0 1 .75-.58l1.72-.29a3 3 0 0 0 2.51-2.96v-.31h9a3.009 3.009 0 0 0 3-3v-37a3.009 3.009 0 0 0 -3-3zm-11 43.31a1.006 1.006 0 0 1 -.84.98l-1.72.29a2.957 2.957 0 0 0 -2.28 1.84l-.15.35a2.98 2.98 0 0 0 .32 2.91l1.02 1.42a.992.992 0 0 1 -.12 1.29l-1.84 1.85a1 1 0 0 1 -1.29.11l-1.42-1.02a2.945 2.945 0 0 0 -2.87-.33l-.39.16a2.958 2.958 0 0 0 -1.84 2.27l-.29 1.74a1.007 1.007 0 0 1 -.98.83h-2.62a1.006 1.006 0 0 1 -.98-.84l-.29-1.72a2.957 2.957 0 0 0 -1.84-2.28l-.35-.15a2.982 2.982 0 0 0 -2.91.32l-1.42 1.02a.992.992 0 0 1 -1.29-.12l-1.85-1.84a1 1 0 0 1 -.11-1.29l1.02-1.42a2.943 2.943 0 0 0 .33-2.87l-.16-.39a2.958 2.958 0 0 0 -2.27-1.84l-1.74-.29a1.007 1.007 0 0 1 -.83-.98v-2.62a1.006 1.006 0 0 1 .84-.98l1.64-.28a21.175 21.175 0 0 0 7.31 9.37l5.63 4.01a.98.98 0 0 0 1.16 0l5.63-4.01a20.554 20.554 0 0 0 4.34-4.19 20.992 20.992 0 0 0 2.96-5.18l1.66.28a1.007 1.007 0 0 1 .83.98zm-29-11.6v-9.05l13-5.57 13 5.57v9.05a19.023 19.023 0 0 1 -7.96 15.46l-5.04 3.6-5.04-3.6a19.023 19.023 0 0 1 -7.96-15.46zm41 8.29a1 1 0 0 1 -1 1h-9v-.31a3 3 0 0 0 -2.5-2.96l-1.33-.22a20.9 20.9 0 0 0 .83-5.8v-9.71a1 1 0 0 0 -.61-.92l-14-6a.963.963 0 0 0 -.78 0l-14 6a1 1 0 0 0 -.61.92v9.71a20.9 20.9 0 0 0 .83 5.8l-1.32.22a3 3 0 0 0 -2.51 2.96v.31h-9a1 1 0 0 1 -1-1v-30h56zm0-32h-56v-5a1 1 0 0 1 1-1h54a1 1 0 0 1 1 1z"/><path d="m25.515 34.143-1.03 1.714 5 3a1 1 0 0 0 1.258-.188l9-10-1.486-1.338-8.449 9.388z"/><path d="m6 6h2v2h-2z"/><path d="m10 6h2v2h-2z"/><path d="m14 6h2v2h-2z"/></g></svg>